<svg width="24" height="24" viewBox="0 0 24 24" fill="none" xmlns="http://www.w3.org/2000/svg">
  <path d="M12.9603 7.95233C13.5967 7.42199 13.6827 6.47614 13.1523 5.83972C12.622 5.20331 11.6761 5.11732 11.0397 5.64767L12.9603 7.95233ZM5.03972 10.6477C4.40331 11.178 4.31732 12.1239 4.84767 12.7603C5.37801 13.3967 6.32386 13.4827 6.96028 12.9523L5.03972 10.6477ZM11.0397 5.64767L5.03972 10.6477L6.96028 12.9523L12.9603 7.95233L11.0397 5.64767Z" fill="#8DC7FC"/>
  <path d="M18.9603 13.3523C19.5967 12.822 19.6827 11.8761 19.1523 11.2397C18.622 10.6033 17.6761 10.5173 17.0397 11.0477L18.9603 13.3523ZM11.0397 16.0477C10.4033 16.578 10.3173 17.5239 10.8477 18.1603C11.378 18.7967 12.3239 18.8827 12.9603 18.3523L11.0397 16.0477ZM17.0397 11.0477L11.0397 16.0477L12.9603 18.3523L18.9603 13.3523L17.0397 11.0477Z" fill="#8DC7FC"/>
  <path fill-rule="evenodd" clip-rule="evenodd" d="M3.28342 6.68877C0.768612 4.59309 2.25054 0.499994 5.52407 0.499994H18.4759C21.7494 0.499994 23.2313 4.59309 20.7165 6.68877L16.4029 10.2835L16.3995 10.2794L10.3995 15.2794L10.4029 15.2835L5.20398 19.6159C4.84472 19.9153 5.05642 20.5 5.52407 20.5H18.4759C18.9435 20.5 19.1552 19.9153 18.796 19.6159L15.901 17.2034L18.2441 15.2509L20.7165 17.3112C23.2313 19.4069 21.7494 23.5 18.4759 23.5H5.52407C2.25053 23.5 0.768623 19.4069 3.28343 17.3112L7.59709 13.7165L7.60046 13.7205L13.6005 8.72055L13.5971 8.7165L18.796 4.3841C19.1552 4.08473 18.9435 3.49999 18.4759 3.49999H5.52407C5.05641 3.49999 4.84473 4.08473 5.20397 4.3841L8.09896 6.79659L5.75589 8.74915L3.28342 6.68877Z" fill="#2F98FA"/>
</svg>
