<svg width="32" height="32" viewBox="0 0 32 32" fill="none" xmlns="http://www.w3.org/2000/svg">
<path d="M24.8782 16.916C25.5498 16.431 25.7011 15.4934 25.216 14.8218C24.731 14.1502 23.7934 13.9989 23.1218 14.484L24.8782 16.916ZM14.1218 20.984C13.4502 21.469 13.2989 22.4066 13.784 23.0782C14.269 23.7498 15.2066 23.9011 15.8782 23.416L14.1218 20.984ZM23.1218 14.484L14.1218 20.984L15.8782 23.416L24.8782 16.916L23.1218 14.484Z" fill="#8DC7FC"/>
<path d="M17.8782 10.816C18.5498 10.331 18.7011 9.39335 18.216 8.72176C17.731 8.05017 16.7934 7.89894 16.1218 8.38398L17.8782 10.816ZM7.12176 14.884C6.45018 15.369 6.29894 16.3066 6.78398 16.9782C7.26902 17.6498 8.20665 17.8011 8.87824 17.316L7.12176 14.884ZM16.1218 8.38398L7.12176 14.884L8.87824 17.316L17.8782 10.816L16.1218 8.38398Z" fill="#8DC7FC"/>
<path fill-rule="evenodd" clip-rule="evenodd" d="M3.5 4C3.5 2.067 5.067 0.499998 7 0.499998H25C26.933 0.499998 28.5 2.067 28.5 4V8C28.5 8.4799 28.2704 8.93084 27.8823 9.2131L23.2444 12.5861L23.2355 12.5738L12.2355 20.5738L12.2444 20.5861L6.5 24.7638V28C6.5 28.2761 6.72386 28.5 7 28.5H25C25.2761 28.5 25.5 28.2761 25.5 28V24.7558L21.1324 21.5223L23.6758 19.6726L27.8925 22.7944C28.2746 23.0773 28.5 23.5246 28.5 24V28C28.5 29.933 26.933 31.5 25 31.5H7C5.067 31.5 3.5 29.933 3.5 28V24C3.5 23.5201 3.72963 23.0692 4.11774 22.7869L25.5 7.23616V4C25.5 3.72386 25.2761 3.5 25 3.5H7C6.72386 3.5 6.5 3.72386 6.5 4V6.95663L10.9644 10.2618L8.42105 12.1116L4.10747 8.91803C3.72537 8.63515 3.5 8.18788 3.5 7.71247V4Z" fill="#2F98FA"/>
</svg>
