<svg width="96" height="96" viewBox="0 0 96 96" fill="none" xmlns="http://www.w3.org/2000/svg">
  <path d="M71.5 48H76.6863C84.906 48 89.0159 48 90.0387 50.4693C91.0615 52.9385 88.1554 55.8446 82.3431 61.6569L61.6569 82.3431C55.8446 88.1554 52.9385 91.0615 50.4693 90.0387C48 89.0159 48 84.906 48 76.6863V48V19.3137C48 11.094 48 6.98414 45.5307 5.96134C43.0615 4.93853 40.1554 7.84464 34.3431 13.6569L13.6569 34.3431C7.84464 40.1554 4.93853 43.0615 5.96134 45.5307C6.98414 48 11.094 48 19.3137 48H24.5" stroke="#2F98FA" stroke-width="9" stroke-linejoin="round"/>
  <path d="M62 18V58" stroke="#8DC7FC" stroke-width="9" stroke-linecap="round" stroke-linejoin="round"/>
  <path d="M34 38V78" stroke="#8DC7FC" stroke-width="9" stroke-linecap="round" stroke-linejoin="round"/>
</svg>
